<svg height="512" viewBox="0 0 512 512" width="512" xmlns="http://www.w3.org/2000/svg"><path d="m236 384h-68.118a48 48 0 0 0 -33.941 14.059l-17.941 17.941 40 40 19.314-19.314a16 16 0 0 1 11.313-4.686h49.373a24 24 0 0 0 24-24 24 24 0 0 0 -24-24z" fill="#fab991"/><path d="m351.314 372.686a16 16 0 0 0 -22.627 0l-59.314 59.314h-82.746a16 16 0 0 0 -11.313 4.686l-19.314 19.314 24 24 16-16h76.687a23.843 23.843 0 0 0 16.97-7.03l61.657-61.656a16 16 0 0 0 0-22.628z" fill="#f0915a"/><path d="m230.667 394.667h5.333a13.333 13.333 0 0 1 13.333 13.333 13.333 13.333 0 0 1 -13.333 13.333h-5.333a8 8 0 0 1 -8-8v-10.666a8 8 0 0 1 8-8z" fill="#f0915a"/><path d="m113.657 413.657 42.343 42.343-40 40h-96l82.343-82.343a8 8 0 0 1 11.314 0z" fill="#555a6e"/><path d="m156 456 26.343 26.343a8 8 0 0 1 0 11.314l-2.343 2.343h-64z" fill="#463c4b"/><path d="m220 200h48a0 0 0 0 1 0 0v176a8 8 0 0 1 -8 8h-32a8 8 0 0 1 -8-8v-176a0 0 0 0 1 0 0z" fill="#784119"/><path d="m220 216.028h24a0 0 0 0 1 0 0v167.972a0 0 0 0 1 0 0h-16a8 8 0 0 1 -8-8v-159.972a0 0 0 0 1 0 0z" fill="#a55528"/><path d="m166.667 136h154.666l18.667 18.667v26.666l-18.667 18.667h-154.666l-18.667-18.667v-26.666z" fill="#555"/><path d="m148 154.667h29.333a18.667 18.667 0 0 0 18.667-18.667h-29.333z" fill="#828787"/><path d="m148 181.333h29.333a18.667 18.667 0 0 1 18.667 18.667h-29.333z" fill="#3c3c3c"/><path d="m276 154.667h-21.333a18.667 18.667 0 0 1 -18.667-18.667h58.667z" fill="#828787"/><path d="m276 181.333h-21.333a18.667 18.667 0 0 0 -18.667 18.667h58.667z" fill="#3c3c3c"/><path d="m294.667 136h26.666l18.667 18.667v26.666l-18.667 18.667h-26.666l-18.667-18.667v-26.666z" fill="#3c3c3c"/><path d="m124 232h240a8 8 0 0 1 8 8v128a16 16 0 0 1 -16 16h-224a16 16 0 0 1 -16-16v-128a8 8 0 0 1 8-8z" fill="#e13741"/><path d="m124 232h112a8 8 0 0 1 8 8v128a16 16 0 0 1 -16 16h-96a16 16 0 0 1 -16-16v-128a8 8 0 0 1 8-8z" fill="#f05555"/><path d="m196 368v-128a8 8 0 0 1 8-8h-32a8 8 0 0 0 -8 8v128a16 16 0 0 0 16 16h32a16 16 0 0 1 -16-16z" fill="#d7e6e6"/><path d="m292 368v-128a8 8 0 0 0 -8-8h32a8 8 0 0 1 8 8v128a16 16 0 0 1 -16 16h-32a16 16 0 0 0 16-16z" fill="#aac3d7"/><rect fill="#e13741" height="56" rx="16" width="288" x="100" y="64"/><rect fill="#f05555" height="56" rx="16" width="144" x="100" y="64"/><path d="m177.333 104v-24a16 16 0 0 1 16-16h-32a16 16 0 0 0 -16 16v24a16 16 0 0 0 16 16h32a16 16 0 0 1 -16-16z" fill="#d7e6e6"/><path d="m300 104v-24a16 16 0 0 0 -16-16h32a16 16 0 0 1 16 16v24a16 16 0 0 1 -16 16h-32a16 16 0 0 0 16-16z" fill="#aac3d7"/><path d="m324 16h-48a39.964 39.964 0 0 0 -32 16.028 39.964 39.964 0 0 0 -32-16.028h-48a24 24 0 0 0 0 48h160a24 24 0 0 0 0-48zm-160 32a8 8 0 0 1 0-16h48a24.042 24.042 0 0 1 22.629 16zm160 0h-70.629a24.042 24.042 0 0 1 22.629-16h48a8 8 0 0 1 0 16z" fill="#aac3d7"/><g fill="#faa51e"><path d="m440 96a12 12 0 0 1 12 12v28a0 0 0 0 1 0 0h-24a0 0 0 0 1 0 0v-28a12 12 0 0 1 12-12z"/><path d="m428 160h24a0 0 0 0 1 0 0v28a12 12 0 0 1 -12 12 12 12 0 0 1 -12-12v-28a0 0 0 0 1 0 0z"/><path d="m408 128a12 12 0 0 1 12 12v28a0 0 0 0 1 0 0h-24a0 0 0 0 1 0 0v-28a12 12 0 0 1 12-12z" transform="matrix(0 -1 1 0 260 556)"/><path d="m460 128h24a0 0 0 0 1 0 0v28a12 12 0 0 1 -12 12 12 12 0 0 1 -12-12v-28a0 0 0 0 1 0 0z" transform="matrix(0 -1 1 0 324 620)"/><path d="m88 184a12 12 0 0 1 12 12v28a0 0 0 0 1 0 0h-24a0 0 0 0 1 0 0v-28a12 12 0 0 1 12-12z"/><path d="m76 248h24a0 0 0 0 1 0 0v28a12 12 0 0 1 -12 12 12 12 0 0 1 -12-12v-28a0 0 0 0 1 0 0z"/><path d="m56 216a12 12 0 0 1 12 12v28a0 0 0 0 1 0 0h-24a0 0 0 0 1 0 0v-28a12 12 0 0 1 12-12z" transform="matrix(0 -1 1 0 -180 292)"/><path d="m108 216h24a0 0 0 0 1 0 0v28a12 12 0 0 1 -12 12 12 12 0 0 1 -12-12v-28a0 0 0 0 1 0 0z" transform="matrix(0 -1 1 0 -116 356)"/><path d="m384 288a12 12 0 0 1 12 12v28a0 0 0 0 1 0 0h-24a0 0 0 0 1 0 0v-28a12 12 0 0 1 12-12z"/><path d="m372 352h24a0 0 0 0 1 0 0v28a12 12 0 0 1 -12 12 12 12 0 0 1 -12-12v-28a0 0 0 0 1 0 0z"/><path d="m352 320a12 12 0 0 1 12 12v28a0 0 0 0 1 0 0h-24a0 0 0 0 1 0 0v-28a12 12 0 0 1 12-12z" transform="matrix(0 -1 1 0 12 692)"/><path d="m404 320h24a0 0 0 0 1 0 0v28a12 12 0 0 1 -12 12 12 12 0 0 1 -12-12v-28a0 0 0 0 1 0 0z" transform="matrix(0 -1 1 0 76 756)"/></g></svg>