<svg id="Layer_1" enable-background="new 0 0 512 512" height="512" viewBox="0 0 512 512" width="512" xmlns="http://www.w3.org/2000/svg"><g><path d="m254.93 188.029c4.143 0 7.5-3.357 7.5-7.5v-15.442c0-4.143-3.357-7.5-7.5-7.5s-7.5 3.357-7.5 7.5v15.442c0 4.143 3.357 7.5 7.5 7.5zm-43.751 240.471c-4.142 0-7.5 3.358-7.5 7.5s3.358 7.5 7.5 7.5 7.5-3.358 7.5-7.5-3.357-7.5-7.5-7.5zm273.286-39.11h-3.621c-1.097-17.595-6.419-34.657-15.575-49.716-2.152-3.541-6.767-4.664-10.305-2.512-3.539 2.151-4.664 6.765-2.512 10.305 7.727 12.709 12.293 27.081 13.367 41.923h-187.448c3.506-48.644 44.203-87.149 93.724-87.149 21.574 0 41.862 7.109 58.669 20.561 3.236 2.59 7.954 2.065 10.542-1.169s2.064-7.954-1.169-10.542c-11.317-9.057-24.356-15.695-38.195-19.641.521-2.256.802-4.574.802-6.918 0-16.906-13.75-30.66-30.65-30.66s-30.649 13.754-30.649 30.66c0 2.328.277 4.628.791 6.869-10.66 3.041-20.651 7.677-29.713 13.618l-38.529-12.938c-5.412-1.816-9.048-6.86-9.048-12.55v-6.261c29.753-18.142 49.654-50.858 49.654-88.126v-8.43c13.936-.469 25.131-11.946 25.131-25.994s-11.195-25.525-25.131-25.994v-72.978c0-28.534-23.26-51.748-51.85-51.748h-103.142c-28.59 0-51.85 23.214-51.85 51.748v72.977c-13.936.469-25.131 11.946-25.131 25.994s11.195 25.525 25.131 25.994v8.429c0 37.27 19.902 69.986 49.656 88.128v6.26c0 5.689-3.636 10.733-9.048 12.55l-90.266 30.31c-28.468 9.552-47.595 36.112-47.595 66.091v116.019c0 4.143 3.357 7.5 7.5 7.5s7.5-3.357 7.5-7.5v-116.02c0-23.525 15.017-44.371 37.368-51.87l14.485-4.864c6.584 9.997 16.266 29.174 14.672 53.791-1.223 18.957-8.608 33.593-14.578 42.517-3.066 4.559-4.688 9.869-4.688 15.356v61.09c0 4.143 3.357 7.5 7.5 7.5s7.5-3.357 7.5-7.5v-61.09c0-2.494.737-4.909 2.144-7 7.004-10.469 15.653-27.625 17.091-49.906 1.703-26.305-7.53-47.285-15.013-59.668l15.504-5.205c17.89 57.609 51.163 109.206 96.189 149.286v33.583c0 4.143 3.357 7.5 7.5 7.5s7.5-3.357 7.5-7.5v-33.593c10.515-9.366 20.457-19.428 29.687-30.035 3.017 2.712 6.993 4.378 11.359 4.378h67.271v4.064c0 6.995 2.92 13.317 7.599 17.826v37.36c0 4.143 3.357 7.5 7.5 7.5s7.5-3.357 7.5-7.5v-30.518c3.278.316 45.822-.043 47.261-.304v30.822c0 4.143 3.357 7.5 7.5 7.5s7.5-3.357 7.5-7.5v-39.852c3.338-4.221 5.339-9.546 5.339-15.333v-4.064h67.271c9.391 0 17.03-7.64 17.03-17.03v-21.79c-.001-9.397-7.641-17.041-17.031-17.041zm-112.37-120.52c8.63 0 15.65 7.025 15.65 15.66 0 1.292-.166 2.566-.474 3.801-5.013-.709-10.082-1.091-15.177-1.091-5.152 0-10.219.368-15.182 1.063-.303-1.226-.467-2.49-.467-3.773 0-8.634 7.021-15.66 15.65-15.66zm-57.495-129.133c5.662.452 10.131 5.205 10.131 10.981s-4.469 10.529-10.131 10.981zm-206.841 21.963c-5.662-.452-10.131-5.205-10.131-10.981s4.469-10.529 10.131-10.981zm15 23.442v-66.754c11.008-2.008 21.617-5.558 31.621-10.587 8.738-4.394 16.896-9.87 24.288-16.303 11.095 6.743 22.852 12.425 34.984 16.905 3.888 1.435 8.199-.551 9.634-4.437 1.436-3.886-.551-8.199-4.437-9.634-11.992-4.43-23.589-10.127-34.467-16.934-4.352-2.726-10.035-2.219-13.817 1.23-6.898 6.284-14.61 11.59-22.924 15.769-7.903 3.974-16.243 6.884-24.883 8.699v-51.35c0-20.263 16.53-36.748 36.85-36.748h103.142c20.319 0 36.85 16.485 36.85 36.748v53.438c-16.058 1.371-32.173.686-47.998-2.052-4.079-.701-7.962 2.031-8.669 6.112-.705 4.082 2.031 7.963 6.112 8.669 16.673 2.883 33.64 3.661 50.555 2.323v64.904c0 48.634-39.665 88.2-88.42 88.2-48.756.003-88.421-39.564-88.421-88.198zm111.979 142.754 14.026-4.563v23.336l-14.026-4.563c.68-2.251 1.05-4.635 1.05-7.104s-.37-4.856-1.05-7.106zm-9.121-12.806c-4.059-2.951-9.046-4.698-14.437-4.698s-10.378 1.747-14.437 4.698l-23.206-7.551c-1.883-.612-3.87-.695-5.768-.315l-5.798-5.798c6.154-4.998 10.029-12.445 10.394-20.632 11.992 4.863 25.094 7.55 38.815 7.55s26.824-2.687 38.816-7.55c.364 8.168 4.222 15.6 10.352 20.598l-5.819 5.819c-1.879-.365-3.842-.277-5.703.328zm-4.829 19.91c0 5.298-4.311 9.608-9.608 9.608-5.299 0-9.609-4.311-9.609-9.608s4.311-9.608 9.609-9.608 9.608 4.31 9.608 9.608zm-33.168 7.105-14.026 4.564v-23.338l14.026 4.564c-.68 2.251-1.05 4.635-1.05 7.105s.37 4.854 1.05 7.105zm55.075 64.325v17.927c-9.657 11.745-20.224 22.868-31.521 33.141-41.822-38.018-72.722-86.564-89.462-140.644l25.808-8.666 11.075 11.075v32.348c0 3.641 1.76 7.093 4.707 9.232 2.954 2.145 6.787 2.741 10.233 1.619l23.207-7.551c4.059 2.951 9.047 4.698 14.437 4.698s10.379-1.747 14.437-4.698l23.206 7.552c3.446 1.12 7.28.526 10.234-1.619 2.947-2.14 4.707-5.591 4.707-9.232v-32.422l11.02-11.02 23.558 7.911c-20.065 18.486-33.201 44.384-34.997 73.309h-3.62c-9.389 0-17.029 7.644-17.029 17.04zm159.499 42.884c0 5.387-4.382 9.769-9.769 9.769h-40.661c-5.387 0-9.769-4.382-9.769-9.769v-18.894h60.198v18.894zm84.301-21.094c0 1.119-.911 2.03-2.03 2.03h-67.271c.262-8.088-6.349-14.827-14.421-14.83h-61.356c-8.073-.013-14.665 6.746-14.421 14.83h-67.271c-1.119 0-2.03-.911-2.03-2.03v-21.79c0-1.125.911-2.04 2.03-2.04h224.739c1.119 0 2.03.915 2.03 2.04v21.79zm-275.316-29.72c-4.142 0-7.5 3.358-7.5 7.5s3.358 7.5 7.5 7.5 7.5-3.358 7.5-7.5-3.357-7.5-7.5-7.5zm-43.75-240.913c-4.143 0-7.5 3.357-7.5 7.5v15.442c0 4.143 3.357 7.5 7.5 7.5s7.5-3.357 7.5-7.5v-15.442c0-4.143-3.358-7.5-7.5-7.5zm43.75 210.913c-4.142 0-7.5 3.358-7.5 7.5s3.358 7.5 7.5 7.5 7.5-3.358 7.5-7.5-3.357-7.5-7.5-7.5zm19.649-146.81c-2.39-3.382-7.07-4.187-10.453-1.795-1.654 1.168-5.159 3.1-9.765 2.938-4.104-.147-7.163-1.901-8.621-2.934-3.381-2.396-8.061-1.595-10.455 1.785s-1.595 8.061 1.785 10.455c3.297 2.336 10.426 5.703 17.854 5.703 8.492 0 14.794-3.531 17.859-5.699 3.384-2.39 4.188-7.071 1.796-10.453z"/></g></svg>